<?xml version="1.0" encoding="UTF-8"?><svg id="Layer_1" xmlns="http://www.w3.org/2000/svg" viewBox="0 0 1224 612"><defs><style>.cls-1{fill:#fff;}.cls-2{fill:#010101;}</style></defs><rect class="cls-2" y="0" width="1224" height="612"/><path class="cls-1" d="M1005.77,294.79c8.52,6.48,8.46,18.3.28,21.95-8.18,3.63-24.48-.89-37.87-4.57-13.39-3.65-23.86-6.48-36.64-9.65-17.53,7.08-34.34,16.02-51.15,27.28-16.81,11.28-33.6,24.9-47.77,38.33s-25.73,26.67-32.26,42.25c-6.52,15.58-8.03,33.51,1.74,41.71,9.75,8.18,30.79,6.65,53.83-5.06,19.44-9.88,40.31-26.99,58.67-43.54-6.52,6.67-11.47,14.13-14.51,21.04-8.9,7.39-18.74,15.38-27.97,22.18-17.08,12.56-32.07,21.02-49.17,22.78-17.13,1.76-36.36-3.14-44.77-14.75-3.87-5.33-5.44-12.09-5.48-19.3-.04-8.46,2.04-17.51,5.04-25.65,5.57-15.09,14.24-26.94,24.1-38.1,9.84-11.13,20.87-21.55,32.75-30.64,11.9-9.09,24.65-16.87,37.87-23.78,13.24-6.91,26.92-12.94,41.12-17.59l.91-5.93c3.04.47,6.08,1,9.09,1.57,12.05-3.59,25.75-6.5,41.16-7.35,15.41-.87,32.51.3,41.03,6.8ZM999.61,313.06c4.63,0,7.2-1.81,7.2-4.63,0-10.26-14.13-15.41-30.83-15.41-10.8,0-24.91,1.53-37.23,5.91,8.2,2.06,18.49,4.89,25.67,6.93,10.8,2.83,24.93,7.2,35.19,7.2Z"/><path class="cls-1" d="M980.27,375.75c3.76,1.3,5.99,3.97,5.99,8.97,0,8.73-6.93,22.61-21.82,37.51-21.59,22.1-39.82,31.6-51.13,31.6-.3,0-.59,0-.87-.02l.11-3.83c7.71,0,25.69-15.17,47-36.49,8.99-8.99,22.1-24.9,22.1-31.6,0-1.34-.81-2.51-2.36-2.76l.98-3.38Z"/><path class="cls-1" d="M900.1,424.54c3.04-6.91,7.99-14.36,14.51-21.04,3.32-2.98,6.55-5.95,9.67-8.84,17.51-14.32,35.13-19.95,47.85-19.95,3.15,0,5.91.28,8.14,1.04l-.98,3.38c-.23-.04-.47-.06-.72-.06-7.71-.26-26.99,14.39-48.05,35.98-12.07,12.33-22.08,24.4-22.08,30.81,0,2.57,1.27,4.12,4.1,4.12l-.11,3.83c-8.16-.28-15.81-4.46-15.81-15.39,0-3.95,1.21-8.75,3.46-13.88Z"/><path class="cls-1" d="M915.38,402.72c2.95-2.95,5.93-5.63,8.9-8.05-3.12,2.89-6.35,5.86-9.67,8.84.26-.28.51-.53.77-.79Z"/><path class="cls-1" d="M914.48,293.77l-.91,5.93c-17.42-1.76-34.96-2.12-52.44-1.1-17.51,1.02-35,3.42-51.7,8.56s-32.64,13.05-46.52,23.67c-13.9,10.62-25.71,23.99-31.6,40.08-5.86,16.07-5.76,34.87,3.38,48.24,6.59,9.63,17.87,16.43,31.64,16.43-8.37,13.98-29.71,4.36-40.33-11.65-7.82-11.79-9.84-27.03-7.88-41.86.7-5.29,1.89-10.52,3.53-15.53,1.15-3.57,2.53-7.01,4.1-10.35,6.78-14.41,17.21-26.56,29.67-36.17,15.32-11.84,33.68-19.81,52.57-24.52,18.91-4.7,38.36-6.1,57.76-5.86,16.34.19,32.64,1.57,48.75,4.14Z"/><path class="cls-1" d="M778.44,277.96c.83.93.74,2.34-.17,3.19-7.71,6.93-16.96,14.9-28.52,22.84-10.01,6.69-19.78,11.82-28.77,11.82-.42,0-.85-.02-1.27-.04-6.31-.43-11.05-4-11.05-10.73,0-3.87,1.55-8.73,5.14-13.62,6.67-8.99,11.56-13.62,22.1-23.38,7.95-7.46,26.46-20.04,26.46-25.69,0-1.02-.53-1.53-2.32-1.53-1,0-2.4.32-4.14.94l-1.23-4.06c3.02-.96,5.78-1.51,8.2-1.51,6.93,0,12.07,3.34,12.58,9.75-.26,6.69-7.46,16.96-20.55,29.03-5.76,5.14-9.92,8.84-15.85,14.98-5.91,6.14-13.56,14.7-14.02,18.06s6.27,1.51,13.09-2.08c6.8-3.61,13.68-8.99,19.98-13.9,6.29-4.93,11.98-9.39,17.19-14.24.91-.83,2.34-.74,3.17.17Z"/><path class="cls-1" d="M754.66,237.69l1.23,4.06c-12.18,4.27-40.57,22.31-56.74,37.59-16.45,15.66-23.63,24.14-32.87,36.47-3.36,0-5.4-4.61-5.4-10.01s7.63-18.4,19.59-32.81c2.76-3.34,5.74-6.72,8.92-10.09,8.73-8.99,14.9-14.13,20.8-17.98,8.48-5.4,20.29-6.93,28.75-6.93-8.46,5.65-25.42,20.55-36.47,32.62,11.96-9.78,35.66-27.65,52.17-32.92Z"/><path class="cls-1" d="M722.47,322.73c0,2.59-2.25,6.1-4.72,8.5-.36-.43-.76-.81-1.19-1.19,1.51-1.7,4.02-4.93,4.02-7.06,0-.87-.26-1.76-1.51-1.76-2.08,0-5.93,2.3-8.71,5.19-1.06-.38-2.17-.7-3.27-.94,2.36-1.98,8.31-5.76,12.22-5.76h.06c1.98.02,3.1,1.4,3.1,3.02Z"/><path class="cls-1" d="M711.31,334.65c-1.47-1.59-3.36-2.61-5.63-3.02-.93-.21-1.91-.3-2.97-.28h-336.56c2.98-2.08,5.91-4.19,8.82-6.35h327.74c1.42,0,2.91.15,4.38.47,1.1.23,2.21.55,3.27.94,2.32.87,4.46,2.08,6.2,3.63.43.38.83.76,1.19,1.19.64.68,1.17,1.4,1.61,2.19,2.98,5.25,1.64,12.58-1.32,18.59-.38.74-.77,1.49-1.19,2.19-2.93,4.99-7.01,9.07-11.33,12.86-4.93,4.34-10.18,8.27-15.83,11.6.89,4.16,3.4,7.05,7.56,7.05,4.91,0,8.31-1.51,12.98-4.53.62-.38,1-.89,1.38-.38.06.11.09.19.09.3,0,.3-.28.66-.85,1.21-3.02,2.91-9.07,7.31-15.49,7.57-6.67.38-11.07-1.13-14.73-6.42-1.57.79-3.61,1.74-5.95,2.66l-.74-1.95c2.23-.81,4.36-1.72,6.06-2.59,3.4-1.76,6.55-3.55,9.41-5.33,10.86-6.74,17.83-13.66,20.87-20.76,3.87-8.97,4.72-15.26,2.55-18.85-.11-.17-.21-.34-.34-.49-.34-.53-.72-1.04-1.19-1.49Z"/><path class="cls-1" d="M711.31,334.65c.47.45.85.96,1.19,1.49-4.14,3.38-9.63,6.99-16.23,10.03-1.89,4.17-3.91,9.94-5.29,16-1.21,5.46-1.74,10.35-1.55,14.07-2.87,1.78-6.01,3.57-9.41,5.33-1.25-4.16-1.13-10.58.38-17.15,1.38-5.78,3.65-10.94,5.78-14.6-.51.19-1.15.45-1.85.74l-.74-1.89c1.4-.57,2.7-1.08,3.87-1.51,3.72-6.29,8.27-11.65,12.69-15.81h2.57c1.06-.02,2.04.06,2.97.28-2.61,3.06-5.76,7.14-8.42,12.01,5.29-2.49,9.94-5.65,14.05-8.99Z"/><path class="cls-1" d="M683.58,348.68l.74,1.89c-4.95,2.17-14.11,7.16-20.95,13.11l-2,1.89c-3.27,3.65-6.57,8.56-6.57,13.47,0,4.65,2.78,6.8,7.05,7.44,3.15.34,7.84-.81,12.09-2.32l.74,1.95c-4.74,1.89-10.69,3.68-16.6,3.76-7.95.13-13.49-3.02-13.49-10.07s6.31-14.49,14.75-19.66l3.27-1.89c6.1-3.31,14.56-7.03,20.95-9.58Z"/><path class="cls-1" d="M680.33,237.48c3.76,1.3,5.99,3.97,5.99,8.99,0,6.27-3.59,15.19-11.14,25.25-2.95,3.93-6.52,8.05-10.71,12.24-21.57,22.1-39.8,31.6-51.11,31.6-.3,0-.6,0-.89-.02l.11-3.82c7.71,0,25.69-15.15,47.01-36.49,9.01-8.99,22.1-24.91,22.1-31.58,0-1.36-.79-2.51-2.36-2.76l1-3.4Z"/><path class="cls-1" d="M680.33,237.48l-1,3.4c-.23-.04-.47-.06-.72-.06-7.71-.25-26.97,14.39-48.02,35.95-12.09,12.33-22.1,24.4-22.1,30.83,0,2.55,1.27,4.1,4.1,4.1l-.11,3.82c-8.16-.28-15.81-4.48-15.81-15.39,0-2,.32-4.21.94-6.59,2.4-1.68,4.72-3.44,6.99-5.25,3.4-2.7,6.69-5.53,9.88-8.46.91-.83.98-2.25.15-3.17-.85-.91-2.25-.96-3.17-.13-3.61,3.32-7.35,6.52-11.24,9.54,3.17-7.12,8.35-14.81,15.19-21.65,20.29-20.29,41.88-28.01,56.78-28.01,3.17,0,5.91.28,8.14,1.04Z"/><path class="cls-1" d="M619.87,219.22c2.83,0,7.2.25,7.2,2.57,0,2.57-5.65,6.95-16.7,12.33-6.67,3.08-17.72,8.22-21.31,12.09-2.83,3.34-3.08,8.71-2.32,13.09,2.17,12.01,4.99,28.26-13.28,42.9,3.19-1.47,6.31-3.1,9.37-4.8,3.44-1.91,6.84-3.91,10.11-6.1,2.49-1.66,4.91-3.4,7.27-5.21-1.17,2.59-2.04,5.1-2.61,7.46-1.15.81-2.34,1.61-3.53,2.38-3.63,2.36-7.42,4.5-11.24,6.55s-7.71,3.99-11.71,5.65c-4.02,1.66-8.14,3-12.35,4.06-4.23,1.06-8.5,1.85-12.77,2.49-2.76.43-5.5.79-8.33.79-1.53,0-3.06-.11-4.63-.36-4.48-.7-9.18-2.64-10.8-6.06-1.21-2.51-.74-5.84.45-9.01.3-.21.57-.45.85-.66,7.97-6.16,15.66-12.86,22.86-19.27.91-.83,1-2.23.17-3.17-.57-.66-1.47-.89-2.27-.64,2.89-1.95,6.01-3.4,9.56-3.12,10.26-8.73,24.14-20.8,30.56-28.26,6.16-7.46,9.24-12.07,15.15-17.72,5.14-4.63,12.86-7.97,20.29-7.97ZM560.8,292.43c8.99-10.01,18.74-25.67,22.86-41.86-6.93,7.71-17.72,17.21-27.5,25.18-1.02,3.34-3.34,6.93-9.75,11.3-3.08,2.04-11.05,5.12-14.64,7.95-4.1,3.08-6.42,6.42-6.42,9.77,0,4.36,2.57,6.42,6.67,6.42,9.24,0,18.76-7.46,28.77-18.76Z"/><path class="cls-1" d="M614.62,276.68c.83.91.76,2.34-.15,3.17-3.19,2.93-6.48,5.76-9.88,8.46-2.27,1.81-4.59,3.57-6.99,5.25.57-2.36,1.44-4.87,2.61-7.46,3.89-3.02,7.63-6.23,11.24-9.54.91-.83,2.32-.79,3.17.13Z"/><path class="cls-1" d="M557.97,239.52c-2.12,1.89-4.23,3.8-6.31,5.74-2.08,1.91-4.16,3.85-6.23,5.8-2.08,1.95-4.12,3.91-6.16,5.89-2.06,1.98-4.08,3.95-6.1,5.95s-4.04,4-6.03,6.01-4,4.04-5.95,6.1c-1.98,2.04-3.95,4.1-5.89,6.16s-3.87,4.12-5.76,6.27c-1.91,2.15-3.8,4.4-5.57,6.46-1.74,2.06-3.38,3.95-5.27,6.69-1.91,2.72-4.1,6.29-3.36,7.61.77,1.34,4.44.4,7.4-.74,2.95-1.17,5.16-2.55,7.48-4.06s4.72-3.12,7.03-4.82c2.3-1.68,4.51-3.44,6.72-5.23s4.42-3.57,6.59-5.4c1.08-.91,2.19-1.83,3.25-2.76-.49.47-.96.93-1.42,1.4-3.04,3.02-5.97,6.1-8.14,10.09-.57,1.06-1.11,2.19-1.55,3.36-7.82,6.16-20.57,14.75-30.49,14.75-6.42,0-11.03-3.85-11.03-10.8,0-3.85,1.02-7.69,3.59-12.07-14.19,12.54-26.16,21.65-35.44,22.76l.19-4.42h.13c.72-.02,1.4-.17,2.06-.38,1.15-.34,2.23-.83,3.29-1.38,1.42-.72,2.8-1.53,4.16-2.36,4.19-2.61,8.16-5.57,12.03-8.65,9.01-7.14,17.47-14.94,25.5-23.18,3.44-3.44,6.93-6.86,10.33-10.35,2.72-2.81,5.38-5.63,7.91-8.58.7-.83,1.38-1.66,2.06-2.51l3.48,1.81c1.53-1.28,3.06-2.55,4.61-3.83,1.53-1.25,3.08-2.53,4.68-3.72s3.23-2.34,4.97-3.29c1.74-.98,3.59-1.76,5.48-2.38,1.91-.62,3.85-1.08,5.82-1.4,1.98-.3,3.95-.45,5.95-.49,2-.06,4-.02,5.99-.04Z"/><path class="cls-1" d="M546.58,276.94c.83.94.74,2.34-.17,3.17-7.2,6.42-14.9,13.11-22.86,19.27-.28.21-.55.45-.85.66.45-1.17.98-2.3,1.55-3.36,2.17-4,5.1-7.08,8.14-10.09.47-.47.93-.93,1.42-1.4.06-.04.13-.09.17-.15,1.02-.87,2.04-1.74,3.06-2.64,1.85-1.59,3.65-3.21,5.48-4.82.59-.45,1.19-.87,1.78-1.27.81-.26,1.7-.02,2.27.64Z"/><path class="cls-1" d="M543.44,276.77c.25-.23.55-.4.87-.47-.6.4-1.19.83-1.78,1.27.3-.25.62-.53.91-.81Z"/><path class="cls-1" d="M543.56,164c-.51.79-2.04,0-3.08-.51-1.27-.51-2.83-1.27-5.91-1.27-25.16,0-53.17,46.75-92.46,89.38-39.06,42.39-71.17,67.55-98.64,84.26-32.11,19.53-74.67,32.73-97.77,30.3s-33.11-10.14-33.87-26.05c.89-31.22,42.24-68.98,93.88-84.89,8.99-2.83,18.23-5.4,29.54-7.2l1.15-2.66c2.17.85,4.53,1.42,7.08,1.64,22.61-3.08,47.51-2.06,61.14.51,3.34.51,6.93,1.27,6.16,2.83-.04.09-.11.17-.19.23-.72.64-2.66,0-5.21-.23-15.66-1.36-31.34-.34-46.9,1.78-15.58,2.1-30.98,5.33-45.9,10.16-14.9,4.82-29.3,11.24-42.78,18.87-13.47,7.61-25.99,16.43-35.44,29.26-9.48,12.81-15.85,29.64-9.07,38.46,6.78,8.82,26.73,9.63,43.18,6.48,16.43-3.15,29.35-10.22,42.44-18.23,13.07-8.01,26.31-16.92,38.74-26.63,12.43-9.69,24.03-20.19,35.42-30.92,9.35-8.82,18.55-17.79,27.65-26.88,2-2,3.99-3.99,5.99-6.01,11.05-11.13,21.95-22.4,33.15-33.36s22.67-21.63,35.04-31.36c12.37-9.71,25.63-18.51,41.01-22.29l1.08-2.85c5.19,1.98,10.09,4.36,14.58,7.2Z"/><path class="cls-1" d="M542.08,277.92c.15-.11.3-.23.45-.34-1.83,1.61-3.63,3.23-5.48,4.82-1.02.89-2.04,1.76-3.06,2.64,2.55-2.49,5.21-4.91,8.1-7.12Z"/><path class="cls-1" d="M528.99,156.79l-1.08,2.85c-15.36-3.57-31.02-5.12-46.75-6.18s-31.49-1.64-47.2-1.13c-15.7.53-31.34,2.17-46.86,5.21-15.53,3.06-30.96,7.52-43.92,16.6-12.96,9.07-23.48,22.76-24.46,38.33-.83,13.26,5.27,27.88,17.68,32.87l-1.15,2.66c-18.87-3.8-24.88-25.35-21.8-43.12,3.06-17.77,15.24-31.75,29.79-41.35,14.53-9.63,31.49-14.92,48.62-17.96,17.15-3.04,34.51-3.85,51.55-3.25,17.06.6,33.83,2.57,51.15,5.65,11.71,2.06,23.65,4.63,34.42,8.82Z"/><path class="cls-1" d="M526.88,242.34c0,3.08-.76,6.42-6.42,12.33l-3.48-1.81c.68-.85,1.32-1.7,1.95-2.59.96-1.36,1.85-2.76,2.53-4.29.23-.53.42-1.08.55-1.64.06-.32.11-.64.08-.98-.02-.28-.08-.57-.25-.79-.15-.19-.36-.32-.59-.4-.43-.15-.87-.17-1.3-.17-1,0-1.95.26-2.91.55-1.38.47-2.72,1.06-4.02,1.7-1.72.85-3.4,1.78-5.04,2.81-2.04,1.23-4,2.55-5.93,3.93-4.89,3.44-9.58,7.18-14.15,11.05-5.78,4.89-11.39,9.94-16.89,15.15-5.31,5.1-10.37,10.5-14.96,16.26-1.81,2.3-3.57,4.65-5.1,7.16-.62.98-1.19,2.02-1.7,3.06-.42.83-.81,1.66-1.13,2.55-.21.62-.4,1.27-.45,1.91,0,.21,0,.4.02.62.02.23.04.49.15.68.15.32.47.55.81.68.28.11.57.15.85.15l-.19,4.42c-.62.06-1.21.11-1.81.11-7.46,0-12.58-3.08-12.58-12.83s7.69-24.67,18.23-35.19c19.53-19.53,47.01-30.32,62.67-30.32,5.91,0,11.05,1.3,11.05,5.91Z"/></svg>